<?xml version="1.0" standalone="no"?>
<!DOCTYPE svg PUBLIC "-//W3C//DTD SVG 20010904//EN"
 "http://www.w3.org/TR/2001/REC-SVG-20010904/DTD/svg10.dtd">
<svg version="1.0" xmlns="http://www.w3.org/2000/svg"
 width="394.000000pt" height="394.000000pt" viewBox="0 0 394.000000 394.000000"
 preserveAspectRatio="xMidYMid meet">
<metadata>
Created by potrace 1.11, written by Peter Selinger 2001-2013
</metadata>
<g transform="translate(0.000000,394.000000) scale(0.100000,-0.100000)"
fill="#000000" stroke="none">
<path d="M0 1971 l0 -1971 398 0 399 0 22 85 c13 47 38 114 56 151 l33 66 -3
-135 c-3 -74 -6 -141 -7 -148 -2 -11 20 -15 103 -17 l107 -3 -1 93 c0 51 3
133 7 183 13 170 16 222 21 431 8 344 15 397 60 434 15 13 20 11 36 -9 21 -25
22 -38 19 -237 -1 -107 2 -134 14 -147 9 -9 11 -17 6 -19 -7 -2 -7 -14 1 -37
10 -27 9 -39 -4 -65 -8 -18 -12 -37 -9 -42 4 -5 31 -8 60 -7 28 0 66 2 83 2
17 1 28 5 24 11 -3 5 4 11 17 11 13 1 28 2 33 4 6 1 17 3 26 3 9 1 26 11 39
22 22 19 34 23 45 18 2 -2 21 13 42 33 39 37 82 57 118 53 117 -11 180 -29
200 -57 8 -12 15 -18 15 -15 0 4 18 1 41 -7 48 -17 75 -8 89 31 14 35 12 74
-2 74 -9 0 -9 3 0 12 7 7 12 20 12 29 0 24 26 42 49 34 30 -9 122 -85 116 -94
-3 -5 1 -11 8 -14 10 -4 13 -21 10 -62 -2 -31 -5 -60 -7 -64 -6 -10 5 -24 34
-44 24 -17 26 -17 50 13 16 19 36 31 56 34 52 5 57 14 32 54 -19 32 -22 49
-21 125 1 66 6 93 18 107 15 17 14 19 -13 39 -35 25 -42 26 -42 7 0 -19 -25
-27 -39 -13 -6 6 -11 19 -11 29 0 18 -11 48 -42 115 -20 45 -35 171 -21 188 4
6 32 21 61 34 52 24 56 29 52 64 -2 22 16 45 55 68 63 39 194 155 204 182 6
15 19 40 31 54 11 14 20 34 20 43 0 27 32 59 64 64 16 3 36 12 46 21 18 17 36
19 44 7 3 -5 -1 -33 -9 -63 -18 -67 -27 -157 -30 -274 -3 -167 20 -243 97
-326 82 -88 122 -114 383 -249 88 -45 204 -114 257 -151 53 -38 108 -73 123
-79 29 -11 121 -72 208 -137 l57 -43 0 1735 0 1735 -1220 0 -1220 0 -1 -52 c0
-29 -2 -73 -3 -98 -2 -25 -6 -96 -10 -158 -4 -62 -9 -122 -11 -135 -2 -12 -6
-58 -10 -102 -7 -92 -15 -182 -20 -240 -2 -22 -6 -76 -10 -120 -3 -44 -8 -93
-10 -110 -2 -16 -7 -66 -10 -110 -4 -44 -9 -89 -11 -100 -2 -11 -7 -53 -10
-94 -3 -42 -7 -82 -9 -91 -2 -8 -6 -55 -10 -105 -4 -49 -9 -99 -11 -110 -19
-97 -24 -399 -11 -614 13 -209 39 -321 90 -387 45 -58 82 -168 73 -217 -4 -20
-22 -54 -41 -77 -19 -23 -44 -59 -56 -80 -24 -42 -44 -56 -55 -38 -5 7 -2 8 6
3 22 -14 4 63 -25 106 -32 49 -15 50 39 2 40 -37 41 -37 44 -14 2 13 -1 28 -7
34 -16 16 -13 37 4 37 11 0 15 11 15 38 0 44 -23 82 -51 82 -10 0 -28 9 -39
20 -11 11 -24 20 -29 20 -14 0 -51 64 -51 88 0 26 -15 35 -59 39 -44 4 -51 15
-44 72 3 25 6 76 6 113 0 61 -3 71 -32 103 -17 20 -31 42 -31 49 0 7 -11 19
-25 26 -14 7 -32 24 -40 37 -19 28 -10 30 59 9 33 -10 46 -11 45 -3 -1 7 6 30
16 52 11 22 20 64 21 94 2 48 9 109 19 159 4 24 13 96 20 167 8 72 12 104 25
170 16 87 21 146 26 335 10 370 15 469 30 543 2 10 4 82 5 158 0 77 7 170 15
207 8 37 16 107 18 156 3 58 9 92 18 97 10 7 10 11 0 21 -10 10 -153 14 -687
16 l-675 3 0 -1970z m2546 1046 c93 -22 144 -49 204 -109 62 -61 80 -104 80
-191 0 -31 5 -68 11 -83 5 -16 12 -53 13 -84 2 -30 4 -58 5 -61 1 -3 12 -11
26 -17 19 -9 25 -19 25 -41 0 -18 7 -34 18 -40 14 -8 15 -12 5 -22 -17 -17
-16 -29 2 -29 8 0 15 -8 15 -17 1 -28 28 -57 62 -69 57 -19 73 -54 72 -152 -1
-106 -28 -171 -100 -244 -42 -43 -52 -48 -90 -48 -30 0 -51 7 -70 23 -24 21
-29 34 -33 92 -1 16 -6 12 -27 -18 -14 -21 -28 -36 -31 -33 -3 2 2 33 11 68
20 82 28 158 17 158 -12 0 -41 -63 -41 -88 0 -11 -11 -64 -25 -118 -14 -54
-25 -108 -25 -119 0 -58 -65 -191 -98 -201 -9 -3 -35 -14 -57 -24 -83 -39
-147 -60 -178 -60 -18 0 -45 -7 -62 -16 -16 -8 -38 -14 -50 -13 -11 1 -37 -1
-58 -6 -72 -14 -143 14 -152 63 -3 19 3 25 35 38 51 21 57 43 25 89 -43 65
-37 75 50 75 64 0 76 3 85 20 16 31 -30 72 -113 99 -69 23 -108 57 -103 89 18
98 14 92 49 85 18 -3 36 -6 41 -7 6 0 12 7 14 17 5 26 -62 87 -97 87 -71 0
-74 78 -11 217 16 34 34 80 41 103 7 22 17 41 23 41 47 6 56 5 60 -8 3 -8 1
-23 -4 -33 -15 -28 22 -85 100 -157 83 -76 99 -82 107 -42 4 21 18 38 45 55
21 14 43 36 49 50 7 20 14 24 27 18 9 -4 34 -9 55 -12 36 -4 46 4 28 24 -5 5
-14 26 -21 47 -6 21 -27 60 -45 87 -19 28 -28 51 -22 51 26 3 43 -4 75 -27 30
-23 32 -24 32 -6 0 25 -57 110 -91 134 -18 14 -48 21 -105 24 -56 3 -92 11
-122 27 -40 20 -43 24 -36 52 4 17 7 44 8 60 1 25 6 31 29 33 30 4 36 20 10
28 -10 3 -25 9 -34 14 -11 6 -22 3 -33 -8 -24 -24 -20 4 4 31 11 12 18 28 15
36 -3 8 0 18 7 23 9 5 5 8 -11 8 l-24 0 26 21 c18 14 48 22 94 26 38 3 70 8
73 10 8 8 131 -5 196 -20z m-171 -637 c3 -5 -1 -10 -10 -10 -9 0 -13 5 -10 10
3 6 8 10 10 10 2 0 7 -4 10 -10z m-1381 -978 c33 -26 77 -57 96 -69 20 -12 47
-34 60 -48 14 -15 35 -31 47 -36 29 -11 43 -39 32 -67 -9 -23 -9 -23 -40 12
-17 20 -36 36 -43 36 -6 0 -22 9 -36 20 -14 11 -41 20 -61 20 -27 0 -43 7 -60
26 -13 15 -36 38 -51 53 -14 14 -27 33 -28 41 -2 17 10 60 17 60 3 0 33 -22
67 -48z m323 -464 c-3 -8 -6 -5 -6 6 -1 11 2 17 5 13 3 -3 4 -12 1 -19z"/>
<path d="M2716 2544 c-8 -20 12 -47 57 -83 16 -13 17 -12 8 12 -7 17 -7 28 -1
32 6 4 10 1 10 -5 0 -6 5 -8 10 -5 6 3 10 15 10 26 0 34 -82 54 -94 23z"/>
<path d="M3000 2204 c0 -8 43 -43 53 -44 14 0 7 23 -10 36 -19 14 -43 18 -43
8z"/>
<path d="M2892 2065 c-15 -34 -16 -33 10 -37 18 -2 24 -12 31 -46 10 -49 30
-52 35 -4 4 35 -32 112 -52 112 -7 0 -18 -11 -24 -25z"/>
<path d="M3306 574 c-11 -29 -6 -68 15 -120 13 -30 27 -50 34 -48 6 3 17 -7
25 -21 7 -14 19 -25 25 -25 12 0 55 -53 55 -69 0 -5 10 -17 22 -25 20 -14 24
-14 40 1 14 13 20 13 33 3 8 -7 15 -8 15 -2 0 5 -7 15 -15 22 -8 7 -15 18 -15
24 0 6 -14 32 -30 59 -25 40 -35 47 -61 47 -22 0 -30 4 -26 14 6 15 -48 76
-68 76 -15 0 -25 22 -25 56 0 27 -15 32 -24 8z"/>
<path d="M1890 540 c0 -5 7 -10 15 -10 8 0 15 5 15 10 0 6 -7 10 -15 10 -8 0
-15 -4 -15 -10z"/>
<path d="M1850 490 c-13 -8 -12 -10 3 -10 9 0 17 5 17 10 0 12 -1 12 -20 0z"/>
<path d="M2306 454 c-15 -14 -16 -54 -7 -186 0 -10 11 -26 23 -38 12 -11 16
-20 10 -20 -7 0 -12 -9 -12 -20 0 -25 16 -26 29 -2 10 19 10 22 1 75 -7 34 -6
37 16 37 25 0 28 7 25 65 -4 72 -52 122 -85 89z"/>
<path d="M2345 134 c-18 -12 -61 -24 -93 -26 -19 -2 -30 -37 -25 -76 l5 -32
83 0 c58 0 86 4 94 14 16 19 3 46 -21 46 -32 0 -14 24 23 31 l34 6 -42 2 c-24
0 -43 -4 -45 -11 -3 -7 -9 -8 -18 -3 -10 6 -6 11 14 22 26 13 33 28 19 36 -5
3 -17 -1 -28 -9z"/>
</g>
</svg>
